RobotoDelta-YOPQmin.ufo
<glyph name="quotesingle" format="1">
  <advance width="401"/>
  <unicode hex="0027"/>
  <outline>
    <contour>
      <point x="123" y="1072" type="line"/>
      <point x="100" y="1437" type="line"/>
      <point x="100" y="1502" type="line"/>
      <point x="301" y="1502" type="line"/>
      <point x="301" y="1447" type="line"/>
      <point x="276" y="1072" type="line"/>
    </contour>
  </outline>
</glyph>
<glyph name="plus" format="1">
  <advance width="1170"/>
  <unicode hex="002B"/>
  <outline>
    <contour>
      <point x="86" y="658" type="line"/>
      <point x="86" y="724" type="line"/>
      <point x="1084" y="724" type="line"/>
      <point x="1084" y="658" type="line"/>
    </contour>
    <contour>
      <point x="493" y="162" type="line"/>
      <point x="493" y="1223" type="line"/>
      <point x="677" y="1223" type="line"/>
      <point x="677" y="162" type="line"/>
    </contour>
  </outline>
</glyph>
<glyph name="zero" format="1">
  <advance width="1156"/>
  <unicode hex="0030"/>
  <outline>
    <contour>
      <point x="110" y="440" type="qcurve" smooth="yes"/>
      <point x="110" y="1007" type="line" smooth="yes"/>
      <point x="110" y="1227"/>
      <point x="364" y="1479"/>
      <point x="577" y="1479" type="qcurve" smooth="yes"/>
      <point x="792" y="1479"/>
      <point x="1046" y="1227"/>
      <point x="1046" y="1007" type="qcurve" smooth="yes"/>
      <point x="1046" y="440" type="line" smooth="yes"/>
      <point x="1046" y="220"/>
      <point x="792" y="-30"/>
      <point x="579" y="-30" type="qcurve" smooth="yes"/>
      <point x="364" y="-30"/>
      <point x="110" y="220"/>
    </contour>
    <contour>
      <point x="304" y="357" type="line" smooth="yes"/>
      <point x="304" y="208"/>
      <point x="420" y="20"/>
      <point x="579" y="20" type="qcurve" smooth="yes"/>
      <point x="738" y="20"/>
      <point x="852" y="214"/>
      <point x="852" y="357" type="qcurve" smooth="yes"/>
      <point x="852" y="1088" type="line" smooth="yes"/>
      <point x="852" y="1229"/>
      <point x="735" y="1426"/>
      <point x="577" y="1426" type="qcurve" smooth="yes"/>
      <point x="419" y="1426"/>
      <point x="304" y="1224"/>
      <point x="304" y="1088" type="qcurve" smooth="yes"/>
    </contour>
  </outline>
</glyph>
<glyph name="A" format="1">
  <advance width="1240"/>
  <unicode hex="0041"/>
  <outline>
    <contour>
      <point x="0" y="0" type="line"/>
      <point x="555" y="1466" type="line"/>
      <point x="684" y="1466" type="line"/>
      <point x="1240" y="0" type="line"/>
      <point x="1042" y="0" type="line"/>
      <point x="607" y="1195" type="line" smooth="yes"/>
      <point x="598" y="1220"/>
      <point x="582" y="1278"/>
      <point x="580" y="1300" type="qcurve"/>
      <point x="574" y="1300" type="line"/>
      <point x="570" y="1278"/>
      <point x="552" y="1222"/>
      <point x="542" y="1194" type="qcurve" smooth="yes"/>
      <point x="104" y="0" type="line"/>
    </contour>
    <contour>
      <point x="208" y="411" type="line"/>
      <point x="228" y="468" type="line"/>
      <point x="965" y="468" type="line"/>
      <point x="985" y="411" type="line"/>
    </contour>
    <contour>
      <point x="600" y="1432" type="move" name="top"/>
    </contour>
  </outline>
</glyph>
<glyph name="G" format="1">
  <advance width="1358"/>
  <unicode hex="0047"/>
  <outline>
    <contour>
      <point x="115" y="672" type="qcurve" smooth="yes"/>
      <point x="115" y="785" type="line" smooth="yes"/>
      <point x="115" y="1109"/>
      <point x="450" y="1486"/>
      <point x="731" y="1486" type="qcurve" smooth="yes"/>
      <point x="976" y="1486"/>
      <point x="1249" y="1230"/>
      <point x="1276" y="1042" type="qcurve" smooth="yes"/>
      <point x="1278" y="1028" type="line"/>
      <point x="1086" y="1028" type="line"/>
      <point x="1084" y="1043" type="line" smooth="yes"/>
      <point x="1062" y="1205"/>
      <point x="878" y="1431"/>
      <point x="731" y="1431" type="qcurve" smooth="yes"/>
      <point x="542" y="1431"/>
      <point x="311" y="1093"/>
      <point x="311" y="792" type="qcurve" smooth="yes"/>
      <point x="311" y="668" type="line" smooth="yes"/>
      <point x="311" y="358"/>
      <point x="541" y="24"/>
      <point x="734" y="24" type="qcurve" smooth="yes"/>
      <point x="864" y="24"/>
      <point x="1050" y="106"/>
      <point x="1092" y="142" type="qcurve"/>
      <point x="1092" y="623" type="line"/>
      <point x="729" y="623" type="line"/>
      <point x="729" y="678" type="line"/>
      <point x="1278" y="678" type="line"/>
      <point x="1278" y="172" type="line"/>
      <point x="1221" y="104"/>
      <point x="936" y="-30"/>
      <point x="733" y="-30" type="qcurve" smooth="yes"/>
      <point x="468" y="-30"/>
      <point x="115" y="347"/>
    </contour>
  </outline>
</glyph>
<glyph name="H" format="1">
  <advance width="1459"/>
  <unicode hex="0048"/>
  <outline>
    <contour>
      <point x="170" y="0" type="line"/>
      <point x="170" y="1456" type="line"/>
      <point x="362" y="1456" type="line"/>
      <point x="362" y="781" type="line"/>
      <point x="1097" y="781" type="line"/>
      <point x="1097" y="1456" type="line"/>
      <point x="1289" y="1456" type="line"/>
      <point x="1289" y="0" type="line"/>
      <point x="1097" y="0" type="line"/>
      <point x="1097" y="725" type="line"/>
      <point x="362" y="725" type="line"/>
      <point x="362" y="0" type="line"/>
    </contour>
  </outline>
</glyph>
<glyph name="M" format="1">
  <advance width="1753"/>
  <unicode hex="004D"/>
  <outline>
    <contour>
      <point x="170" y="0" type="line"/>
      <point x="170" y="1456" type="line"/>
      <point x="300" y="1456" type="line"/>
      <point x="793" y="204" type="line" smooth="yes"/>
      <point x="801" y="185"/>
      <point x="826" y="122"/>
      <point x="826" y="110" type="qcurve"/>
      <point x="839" y="110" type="line"/>
      <point x="839" y="122"/>
      <point x="865" y="186"/>
      <point x="873" y="206" type="qcurve" smooth="yes"/>
      <point x="1343" y="1456" type="line"/>
      <point x="1501" y="1456" type="line"/>
      <point x="1501" y="0" type="line"/>
      <point x="1315" y="0" type="line"/>
      <point x="1315" y="919" type="line" smooth="yes"/>
      <point x="1315" y="967"/>
      <point x="1315" y="1158"/>
      <point x="1315" y="1185" type="qcurve"/>
      <point x="1306" y="1185" type="line"/>
      <point x="1297" y="1157"/>
      <point x="1264" y="1076"/>
      <point x="1253" y="1046" type="qcurve" smooth="yes"/>
      <point x="859" y="0" type="line"/>
      <point x="677" y="0" type="line"/>
      <point x="273" y="1046" type="line" smooth="yes"/>
      <point x="263" y="1072"/>
      <point x="241" y="1156"/>
      <point x="235" y="1185" type="qcurve"/>
      <point x="226" y="1185" type="line"/>
      <point x="229" y="1155"/>
      <point x="234" y="967"/>
      <point x="234" y="920" type="qcurve" smooth="yes"/>
      <point x="234" y="0" type="line"/>
    </contour>
  </outline>
</glyph>
<glyph name="Q" format="1">
  <advance width="1461"/>
  <unicode hex="0051"/>
  <outline>
    <contour>
      <point x="1192" y="-246" type="line"/>
      <point x="868" y="10" type="line"/>
      <point x="991" y="134" type="line"/>
      <point x="1321" y="-127" type="line"/>
    </contour>
    <contour>
      <point x="115" y="682" type="qcurve" smooth="yes"/>
      <point x="115" y="774" type="line" smooth="yes"/>
      <point x="115" y="1107"/>
      <point x="473" y="1486"/>
      <point x="730" y="1486" type="qcurve" smooth="yes"/>
      <point x="997" y="1486"/>
      <point x="1346" y="1109"/>
      <point x="1346" y="774" type="qcurve" smooth="yes"/>
      <point x="1346" y="682" type="line" smooth="yes"/>
      <point x="1346" y="356"/>
      <point x="997" y="-25"/>
      <point x="732" y="-25" type="qcurve" smooth="yes"/>
      <point x="472" y="-25"/>
      <point x="115" y="354"/>
    </contour>
    <contour>
      <point x="311" y="678" type="line" smooth="yes"/>
      <point x="311" y="356"/>
      <point x="565" y="36"/>
      <point x="732" y="36" type="qcurve" smooth="yes"/>
      <point x="906" y="36"/>
      <point x="1150" y="359"/>
      <point x="1150" y="678" type="qcurve" smooth="yes"/>
      <point x="1150" y="780" type="line" smooth="yes"/>
      <point x="1150" y="1108"/>
      <point x="905" y="1425"/>
      <point x="730" y="1425" type="qcurve" smooth="yes"/>
      <point x="566" y="1425"/>
      <point x="311" y="1106"/>
      <point x="311" y="780" type="qcurve" smooth="yes"/>
    </contour>
  </outline>
</glyph>
<glyph name="S" format="1">
  <advance width="1216"/>
  <unicode hex="0053"/>
  <outline>
    <contour>
      <point x="88" y="394" type="qcurve" smooth="yes"/>
      <point x="88" y="405" type="line"/>
      <point x="280" y="405" type="line"/>
      <point x="280" y="398" type="line" smooth="yes"/>
      <point x="280" y="187"/>
      <point x="479" y="29"/>
      <point x="614" y="29" type="qcurve" smooth="yes"/>
      <point x="777" y="29"/>
      <point x="947" y="185"/>
      <point x="947" y="327" type="qcurve" smooth="yes"/>
      <point x="947" y="475"/>
      <point x="790" y="597"/>
      <point x="584" y="655" type="qcurve" smooth="yes"/>
      <point x="344" y="723"/>
      <point x="119" y="914"/>
      <point x="119" y="1079" type="qcurve" smooth="yes"/>
      <point x="119" y="1249"/>
      <point x="390" y="1486"/>
      <point x="613" y="1486" type="qcurve" smooth="yes"/>
      <point x="861" y="1486"/>
      <point x="1112" y="1236"/>
      <point x="1112" y="1071" type="qcurve" smooth="yes"/>
      <point x="1112" y="1056" type="line"/>
      <point x="920" y="1056" type="line"/>
      <point x="920" y="1070" type="line" smooth="yes"/>
      <point x="920" y="1263"/>
      <point x="744" y="1422"/>
      <point x="611" y="1422" type="qcurve" smooth="yes"/>
      <point x="481" y="1422"/>
      <point x="312" y="1275"/>
      <point x="312" y="1140" type="qcurve" smooth="yes"/>
      <point x="312" y="1010"/>
      <point x="474" y="885"/>
      <point x="649" y="838" type="qcurve" smooth="yes"/>
      <point x="901" y="771"/>
      <point x="1141" y="563"/>
      <point x="1141" y="380" type="qcurve" smooth="yes"/>
      <point x="1141" y="193"/>
      <point x="860" y="-30"/>
      <point x="626" y="-30" type="qcurve" smooth="yes"/>
      <point x="385" y="-30"/>
      <point x="88" y="183"/>
    </contour>
  </outline>
</glyph>
<glyph name="T" format="1">
  <advance width="1174"/>
  <unicode hex="0054"/>
  <outline>
    <contour>
      <point x="24" y="1399" type="line"/>
      <point x="24" y="1456" type="line"/>
      <point x="1150" y="1456" type="line"/>
      <point x="1150" y="1399" type="line"/>
      <point x="682" y="1399" type="line"/>
      <point x="682" y="0" type="line"/>
      <point x="492" y="0" type="line"/>
      <point x="492" y="1399" type="line"/>
    </contour>
  </outline>
</glyph>
<glyph name="c" format="1">
  <advance width="1033"/>
  <unicode hex="0063"/>
  <outline>
    <contour>
      <point x="85" y="511" type="qcurve" smooth="yes"/>
      <point x="85" y="554" type="line" smooth="yes"/>
      <point x="85" y="778"/>
      <point x="341" y="1082"/>
      <point x="566" y="1082" type="qcurve" smooth="yes"/>
      <point x="799" y="1082"/>
      <point x="997" y="836"/>
      <point x="997" y="693" type="qcurve" smooth="yes"/>
      <point x="997" y="690" type="line"/>
      <point x="821" y="690" type="line"/>
      <point x="821" y="712" type="line" smooth="yes"/>
      <point x="821" y="835"/>
      <point x="700" y="1032"/>
      <point x="566" y="1032" type="qcurve" smooth="yes"/>
      <point x="432" y="1032"/>
      <point x="273" y="782"/>
      <point x="273" y="576" type="qcurve" smooth="yes"/>
      <point x="273" y="490" type="line" smooth="yes"/>
      <point x="273" y="285"/>
      <point x="428" y="20"/>
      <point x="566" y="20" type="qcurve" smooth="yes"/>
      <point x="690" y="20"/>
      <point x="821" y="171"/>
      <point x="821" y="305" type="qcurve" smooth="yes"/>
      <point x="821" y="332" type="line"/>
      <point x="997" y="332" type="line"/>
      <point x="997" y="327" type="line" smooth="yes"/>
      <point x="997" y="207"/>
      <point x="807" y="-30"/>
      <point x="566" y="-30" type="qcurve" smooth="yes"/>
      <point x="325" y="-30"/>
      <point x="85" y="295"/>
    </contour>
    <contour>
      <point x="566.0" y="0.0" type="move" name="bottom"/>
    </contour>
  </outline>
</glyph>
<glyph name="d" format="1">
  <advance width="1168"/>
  <unicode hex="0064"/>
  <outline>
    <contour>
      <point x="85" y="518" type="qcurve" smooth="yes"/>
      <point x="85" y="538" type="line" smooth="yes"/>
      <point x="85" y="780"/>
      <point x="314" y="1077"/>
      <point x="513" y="1077" type="qcurve" smooth="yes"/>
      <point x="633" y="1077"/>
      <point x="799" y="989"/>
      <point x="834" y="942" type="qcurve"/>
      <point x="834" y="1536" type="line"/>
      <point x="1020" y="1536" type="line"/>
      <point x="1020" y="0" type="line"/>
      <point x="850" y="0" type="line"/>
      <point x="839" y="139" type="line"/>
      <point x="785" y="63"/>
      <point x="622" y="-20"/>
      <point x="511" y="-20" type="qcurve" smooth="yes"/>
      <point x="321" y="-20"/>
      <point x="85" y="287"/>
    </contour>
    <contour>
      <point x="275" y="490" type="line" smooth="yes"/>
      <point x="275" y="265"/>
      <point x="425" y="35"/>
      <point x="557" y="35" type="qcurve" smooth="yes"/>
      <point x="665" y="35"/>
      <point x="810" y="185"/>
      <point x="834" y="267" type="qcurve"/>
      <point x="834" y="804" type="line"/>
      <point x="806" y="877"/>
      <point x="661" y="1003"/>
      <point x="559" y="1003" type="qcurve" smooth="yes"/>
      <point x="427" y="1003"/>
      <point x="275" y="746"/>
      <point x="275" y="566" type="qcurve" smooth="yes"/>
    </contour>
  </outline>
</glyph>
<glyph name="f" format="1">
  <advance width="602"/>
  <unicode hex="0066"/>
  <outline>
    <contour>
      <point x="197" y="0" type="line"/>
      <point x="197" y="1196" type="line" smooth="yes"/>
      <point x="197" y="1369"/>
      <point x="387" y="1557"/>
      <point x="552" y="1557" type="qcurve" smooth="yes"/>
      <point x="583" y="1557"/>
      <point x="649" y="1548"/>
      <point x="680" y="1541" type="qcurve"/>
      <point x="671" y="1484" type="line"/>
      <point x="623" y="1494"/>
      <point x="575" y="1499"/>
      <point x="570" y="1499" type="qcurve" smooth="yes"/>
      <point x="484" y="1499"/>
      <point x="383" y="1371"/>
      <point x="383" y="1227" type="qcurve" smooth="yes"/>
      <point x="383" y="1041" type="line"/>
      <point x="383" y="1019" type="line"/>
      <point x="383" y="0" type="line"/>
    </contour>
    <contour>
      <point x="26" y="1012" type="line"/>
      <point x="26" y="1052" type="line"/>
      <point x="280" y="1052" type="line"/>
      <point x="312" y="1052" type="line"/>
      <point x="612" y="1052" type="line"/>
      <point x="612" y="1012" type="line"/>
    </contour>
  </outline>
</glyph>
<glyph name="g" format="1">
  <advance width="1158"/>
  <unicode hex="0067"/>
  <outline>
    <contour>
      <point x="124" y="-284" type="qcurve"/>
      <point x="241" y="-144" type="line"/>
      <point x="280" y="-245"/>
      <point x="449" y="-389"/>
      <point x="546" y="-389" type="qcurve" smooth="yes"/>
      <point x="677" y="-389"/>
      <point x="837" y="-182"/>
      <point x="837" y="14" type="qcurve" smooth="yes"/>
      <point x="837" y="177" type="line"/>
      <point x="786" y="88"/>
      <point x="614" y="-10"/>
      <point x="497" y="-10" type="qcurve" smooth="yes"/>
      <point x="309" y="-10"/>
      <point x="85" y="294"/>
      <point x="85" y="516" type="qcurve" smooth="yes"/>
      <point x="85" y="537" type="line" smooth="yes"/>
      <point x="85" y="777"/>
      <point x="308" y="1077"/>
      <point x="499" y="1077" type="qcurve" smooth="yes"/>
      <point x="617" y="1077"/>
      <point x="785" y="976"/>
      <point x="836" y="883" type="qcurve"/>
      <point x="850" y="1052" type="line"/>
      <point x="1018" y="1052" type="line"/>
      <point x="1018" y="23" type="line" smooth="yes"/>
      <point x="1018" y="-191"/>
      <point x="761" y="-437"/>
      <point x="560" y="-437" type="qcurve" smooth="yes"/>
      <point x="437" y="-437"/>
      <point x="182" y="-350"/>
    </contour>
    <contour>
      <point x="275" y="518" type="line" smooth="yes"/>
      <point x="275" y="278"/>
      <point x="433" y="45"/>
      <point x="548" y="45" type="qcurve" smooth="yes"/>
      <point x="656" y="45"/>
      <point x="801" y="219"/>
      <point x="833" y="333" type="qcurve"/>
      <point x="833" y="723" type="line"/>
      <point x="809" y="837"/>
      <point x="657" y="1030"/>
      <point x="550" y="1030" type="qcurve" smooth="yes"/>
      <point x="432" y="1030"/>
      <point x="275" y="784"/>
      <point x="275" y="542" type="qcurve" smooth="yes"/>
    </contour>
  </outline>
</glyph>
<glyph name="i" format="1">
  <advance width="499"/>
  <unicode hex="0069"/>
  <outline>
    <contour>
      <point x="157" y="0" type="line"/>
      <point x="157" y="1052" type="line"/>
      <point x="342" y="1052" type="line"/>
      <point x="342" y="0" type="line"/>
    </contour>
    <contour>
      <point x="140" y="1464" type="qcurve" smooth="yes"/>
      <point x="140" y="1473"/>
      <point x="181" y="1524"/>
      <point x="249" y="1524" type="qcurve" smooth="yes"/>
      <point x="317" y="1524"/>
      <point x="359" y="1473"/>
      <point x="359" y="1464" type="qcurve" smooth="yes"/>
      <point x="359" y="1458"/>
      <point x="317" y="1408"/>
      <point x="249" y="1408" type="qcurve" smooth="yes"/>
      <point x="180" y="1408"/>
      <point x="140" y="1458"/>
    </contour>
  </outline>
</glyph>
<glyph name="z" format="1">
  <advance width="988"/>
  <unicode hex="007A"/>
  <outline>
    <contour>
      <point x="68" y="0" type="line"/>
      <point x="68" y="135" type="line"/>
      <point x="749" y="1000" type="line"/>
      <point x="76" y="1000" type="line"/>
      <point x="76" y="1052" type="line"/>
      <point x="897" y="1052" type="line"/>
      <point x="897" y="921" type="line"/>
      <point x="208" y="50" type="line"/>
      <point x="926" y="50" type="line"/>
      <point x="926" y="0" type="line"/>
    </contour>
  </outline>
</glyph>
<glyph name="exclamdown" format="1">
  <advance width="620"/>
  <unicode hex="00A1"/>
  <outline>
    <contour>
      <point x="227" y="712" type="line"/>
      <point x="393" y="712" type="line"/>
      <point x="405" y="-301" type="line"/>
      <point x="214" y="-301" type="line"/>
    </contour>
    <contour>
      <point x="189" y="1111" type="qcurve" smooth="yes"/>
      <point x="189" y="1123"/>
      <point x="235" y="1179"/>
      <point x="309" y="1179" type="qcurve" smooth="yes"/>
      <point x="382" y="1179"/>
      <point x="431" y="1122"/>
      <point x="431" y="1110" type="qcurve" smooth="yes"/>
      <point x="431" y="1096"/>
      <point x="383" y="1040"/>
      <point x="309" y="1040" type="qcurve" smooth="yes"/>
      <point x="235" y="1040"/>
      <point x="189" y="1097"/>
    </contour>
  </outline>
</glyph>
<glyph name="sterling" format="1">
  <advance width="1191"/>
  <unicode hex="00A3"/>
  <outline>
    <contour>
      <point x="125" y="0" type="line"/>
      <point x="125" y="56" type="line"/>
      <point x="145" y="56" type="line" smooth="yes"/>
      <point x="224" y="56"/>
      <point x="305" y="213"/>
      <point x="305" y="359" type="qcurve" smooth="yes"/>
      <point x="305" y="513"/>
      <point x="227" y="987"/>
      <point x="227" y="1117" type="qcurve" smooth="yes"/>
      <point x="227" y="1245"/>
      <point x="461" y="1478"/>
      <point x="667" y="1478" type="qcurve" smooth="yes"/>
      <point x="877" y="1478"/>
      <point x="1080" y="1261"/>
      <point x="1080" y="1115" type="qcurve" smooth="yes"/>
      <point x="1080" y="1122" type="line"/>
      <point x="888" y="1122" type="line"/>
      <point x="888" y="1115" type="line" smooth="yes"/>
      <point x="888" y="1268"/>
      <point x="750" y="1422"/>
      <point x="651" y="1422" type="qcurve" smooth="yes"/>
      <point x="552" y="1422"/>
      <point x="415" y="1250"/>
      <point x="415" y="1108" type="qcurve" smooth="yes"/>
      <point x="415" y="952"/>
      <point x="480" y="435"/>
      <point x="480" y="377" type="qcurve" smooth="yes"/>
      <point x="480" y="340"/>
      <point x="438" y="194"/>
      <point x="255" y="56" type="qcurve"/>
      <point x="1128" y="56" type="line"/>
      <point x="1128" y="0" type="line"/>
    </contour>
    <contour>
      <point x="893" y="736" type="line"/>
      <point x="91" y="736" type="line"/>
      <point x="91" y="792" type="line"/>
      <point x="893" y="792" type="line"/>
    </contour>
  </outline>
</glyph>
<glyph name="guillemetright" format="1">
  <advance width="1115"/>
  <unicode hex="00BB"/>
  <outline>
    <contour>
      <point x="706" y="993" type="line"/>
      <point x="1037" y="578" type="line"/>
      <point x="1037" y="640" type="line"/>
      <point x="706" y="226" type="line"/>
      <point x="587" y="226" type="line"/>
      <point x="845" y="609" type="line"/>
      <point x="587" y="993" type="line"/>
    </contour>
    <contour>
      <point x="246" y="993" type="line"/>
      <point x="577" y="578" type="line"/>
      <point x="577" y="640" type="line"/>
      <point x="246" y="226" type="line"/>
      <point x="127" y="226" type="line"/>
      <point x="385" y="609" type="line"/>
      <point x="127" y="993" type="line"/>
    </contour>
  </outline>
</glyph>
<glyph name="questiondown" format="1">
  <advance width="968"/>
  <unicode hex="00BF"/>
  <outline>
    <contour>
      <point x="440" y="712" type="line"/>
      <point x="626" y="712" type="line"/>
      <point x="626" y="764" type="line" smooth="yes"/>
      <point x="626" y="665"/>
      <point x="564" y="511"/>
      <point x="447" y="387" type="qcurve" smooth="yes"/>
      <point x="388" y="324"/>
      <point x="282" y="172"/>
      <point x="282" y="24" type="qcurve" smooth="yes"/>
      <point x="282" y="-127"/>
      <point x="407" y="-262"/>
      <point x="496" y="-262" type="qcurve" smooth="yes"/>
      <point x="583" y="-262"/>
      <point x="723" y="-134"/>
      <point x="723" y="7" type="qcurve" smooth="yes"/>
      <point x="723" y="-28" type="line"/>
      <point x="908" y="-28" type="line"/>
      <point x="908" y="7" type="line" smooth="yes"/>
      <point x="908" y="-131"/>
      <point x="701" y="-323"/>
      <point x="496" y="-323" type="qcurve" smooth="yes"/>
      <point x="292" y="-323"/>
      <point x="96" y="-119"/>
      <point x="96" y="30" type="qcurve" smooth="yes"/>
      <point x="96" y="136"/>
      <point x="238" y="349"/>
      <point x="308" y="416" type="qcurve" smooth="yes"/>
      <point x="397" y="504"/>
      <point x="440" y="653"/>
      <point x="440" y="767" type="qcurve" smooth="yes"/>
    </contour>
    <contour>
      <point x="645" y="1110" type="qcurve" smooth="yes"/>
      <point x="645" y="1096"/>
      <point x="597" y="1040"/>
      <point x="525" y="1040" type="qcurve" smooth="yes"/>
      <point x="452" y="1040"/>
      <point x="404" y="1096"/>
      <point x="404" y="1110" type="qcurve" smooth="yes"/>
      <point x="404" y="1122"/>
      <point x="452" y="1178"/>
      <point x="525" y="1178" type="qcurve" smooth="yes"/>
      <point x="597" y="1178"/>
      <point x="645" y="1122"/>
    </contour>
  </outline>
</glyph>
<glyph name="multiply" format="1">
  <advance width="1170"/>
  <unicode hex="00D7"/>
  <outline>
    <contour>
      <point x="174" y="302" type="line"/>
      <point x="916" y="1145" type="line"/>
      <point x="993" y="1056" type="line"/>
      <point x="250" y="214" type="line"/>
    </contour>
    <contour>
      <point x="175" y="1057" type="line"/>
      <point x="254" y="1149" type="line"/>
      <point x="996" y="305" type="line"/>
      <point x="918" y="215" type="line"/>
    </contour>
  </outline>
</glyph>
<glyph name="Thorn" format="1">
  <advance width="1198"/>
  <unicode hex="00DE"/>
  <outline>
    <contour>
      <point x="363" y="313" type="line"/>
      <point x="363" y="0" type="line"/>
      <point x="170" y="0" type="line"/>
      <point x="170" y="1456" type="line"/>
      <point x="363" y="1456" type="line"/>
      <point x="363" y="1152" type="line"/>
      <point x="649" y="1152" type="line" smooth="yes"/>
      <point x="906" y="1152"/>
      <point x="1150" y="908"/>
      <point x="1150" y="741" type="qcurve" smooth="yes"/>
      <point x="1150" y="555"/>
      <point x="905" y="311"/>
      <point x="649" y="312" type="qcurve" smooth="yes"/>
    </contour>
    <contour>
      <point x="362" y="369" type="line"/>
      <point x="649" y="369" type="line" smooth="yes"/>
      <point x="798" y="369"/>
      <point x="957" y="568"/>
      <point x="957" y="740" type="qcurve" smooth="yes"/>
      <point x="957" y="900"/>
      <point x="798" y="1095"/>
      <point x="649" y="1096" type="qcurve" smooth="yes"/>
      <point x="362" y="1096" type="line"/>
    </contour>
  </outline>
</glyph>
<glyph name="numero" format="1">
  <advance width="2481"/>
  <unicode hex="2116"/>
  <outline>
    <contour>
      <point x="170" y="0" type="line"/>
      <point x="170" y="1456" type="line"/>
      <point x="374" y="1456" type="line"/>
      <point x="997" y="363" type="line" smooth="yes"/>
      <point x="1006" y="348"/>
      <point x="1045" y="276"/>
      <point x="1061" y="238" type="qcurve"/>
      <point x="1072" y="238" type="line"/>
      <point x="1067" y="352"/>
      <point x="1064" y="432"/>
      <point x="1064" y="419" type="qcurve" smooth="yes"/>
      <point x="1064" y="1456" type="line"/>
      <point x="1250" y="1456" type="line"/>
      <point x="1250" y="0" type="line"/>
      <point x="1045" y="0" type="line"/>
      <point x="425" y="1089" type="line" smooth="yes"/>
      <point x="416" y="1105"/>
      <point x="370" y="1177"/>
      <point x="354" y="1215" type="qcurve"/>
      <point x="355" y="1215" type="line"/>
      <point x="358" y="1138"/>
      <point x="356" y="1093"/>
      <point x="356" y="1034" type="qcurve" smooth="yes"/>
      <point x="356" y="0" type="line"/>
    </contour>
    <contour>
      <point x="1396" y="980" type="qcurve" smooth="yes"/>
      <point x="1396" y="1001" type="line" smooth="yes"/>
      <point x="1396" y="1195"/>
      <point x="1638" y="1476"/>
      <point x="1878" y="1476" type="qcurve" smooth="yes"/>
      <point x="2127" y="1476"/>
      <point x="2365" y="1201"/>
      <point x="2365" y="1001" type="qcurve" smooth="yes"/>
      <point x="2365" y="980" type="line" smooth="yes"/>
      <point x="2365" y="786"/>
      <point x="2121" y="508"/>
      <point x="1880" y="508" type="qcurve" smooth="yes"/>
      <point x="1638" y="508"/>
      <point x="1396" y="786"/>
    </contour>
    <contour>
      <point x="1580" y="1003" type="qcurve" smooth="yes"/>
      <point x="1580" y="982" type="line" smooth="yes"/>
      <point x="1580" y="789"/>
      <point x="1738" y="557"/>
      <point x="1880" y="557" type="qcurve" smooth="yes"/>
      <point x="2019" y="557"/>
      <point x="2175" y="789"/>
      <point x="2175" y="982" type="qcurve" smooth="yes"/>
      <point x="2175" y="1003" type="line" smooth="yes"/>
      <point x="2175" y="1194"/>
      <point x="2019" y="1426"/>
      <point x="1878" y="1426" type="qcurve" smooth="yes"/>
      <point x="1738" y="1426"/>
      <point x="1580" y="1194"/>
    </contour>
    <contour>
      <point x="1435" y="139" type="line"/>
      <point x="1435" y="205" type="line"/>
      <point x="2332" y="205" type="line"/>
      <point x="2332" y="139" type="line"/>
    </contour>
  </outline>
</glyph>
